<mxfile host="multicloud-diagrams" agent="PIP package multicloud-diagrams. Generate resources in draw.io compatible format for Cloud infrastructure. Copyrights @ Roman Tsypuk 2023. MIT license." type="MultiCloud">
	<diagram id="diagram_1" name="AWS components">
		<mxGraphModel dx="1015" dy="661" grid="1" gridSize="10" guides="1" tooltips="1" connect="1" arrows="1" fold="1" page="1" pageScale="1" pageWidth="850" pageHeight="1100" math="0" shadow="1">
			<root>
				<mxCell id="0"/>
				<mxCell id="1" parent="0"/>
				<mxCell id="vertex:cloud_wan:arn:aws:cloud_wan:us-west-1:123456789012:service/cloud_wan/123" value="&lt;b&gt;Name&lt;/b&gt;: Private 5g&lt;BR&gt;&lt;b&gt;ARN&lt;/b&gt;: arn:aws:cloud_wan:us-west-1:123456789012:service/cloud_wan/123&lt;BR&gt;-----------&lt;BR&gt;&lt;b&gt;ASN-interconnect&lt;/b&gt;: 4405&lt;BR&gt;&lt;b&gt;ANS&lt;/b&gt;: 3301&lt;BR&gt;&lt;b&gt;edge-location&lt;/b&gt;: us-east-1&lt;BR&gt;&lt;b&gt;attachment&lt;/b&gt;: Site-to-Site-ID" style="sketch=0;outlineConnect=0;fontColor=#232F3E;fillColor=#8C4FFF;strokeColor=#ffffff;dashed=0;verticalLabelPosition=bottom;verticalAlign=top;align=left;html=1;fontSize=12;fontStyle=0;aspect=fixed;shape=mxgraph.aws4.resourceIcon;resIcon=mxgraph.aws4.cloud_wan;" parent="1" vertex="1">
					<mxGeometry width="78" height="78" as="geometry"/>
				</mxCell>
			</root>
		</mxGraphModel>
	</diagram>
</mxfile>